# xmcd CD database file
#
# Track frame offsets:
#	150
#	16235
#	42103
#	58350
#	74505
#	85168
#	99030
#	119765
#	136073
#	155960
#	175388
#	197075
#	222203
#	238808
#
# Disc length: 3456 seconds
#
# Revision: 0
# Processed by: cddbd v1.4PL0 Copyright (c) Steve Scherf et al.
# Submitted via: CD2WAV32(EN) R3.19
#
DISCID=cb0d7e0e
DTITLE=JIANG JIANHUA - Niko ga kanaderu Nihon no shiki
DYEAR=1900
DGENRE=
TTITLE0=HARU - Hana
TTITLE1=HARU - Soushunfu
TTITLE2=HARU - Hanano machi
TTITLE3=NATU - Hamabe no uta
TTITLE4=NATU - Natu ha kinu
TTITLE5=NATU - Ware ha umi no ko
TTITLE6=NATU - Natu no omoide
TTITLE7=AKI - Akatonbo
TTITLE8=AKI - Sato no aki
TTITLE9=AKI - Ryosyu
TTITLE10=AKI - Kouyou
TTITLE11=FUYU - Fuyu no yoru
TTITLE12=FUYU - Pechika
TTITLE13=FUYU - Yuki no furu machi wo
EXTD=
EXTT0=
EXTT1=
EXTT2=
EXTT3=
EXTT4=
EXTT5=
EXTT6=
EXTT7=
EXTT8=
EXTT9=
EXTT10=
EXTT11=
EXTT12=
EXTT13=
PLAYORDER=
